<?xml version="1.0" encoding="utf-8"?>
<!-- Generator: Adobe Illustrator 25.4.1, SVG Export Plug-In . SVG Version: 6.00 Build 0)  -->
<svg version="1.1" id="Capa_1" xmlns="http://www.w3.org/2000/svg" xmlns:xlink="http://www.w3.org/1999/xlink" x="0px" y="0px"
	 viewBox="0 0 10000 1950" style="enable-background:new 0 0 10000 1950;" xml:space="preserve">
<style type="text/css">
	.st0{fill:#E8E6E3;stroke:#000000;stroke-width:4;stroke-miterlimit:10;}
	.st1{fill:#67BAAF;}
</style>
<g>
	<path class="st0" d="M90.2,1326.4c3.6,1,6.3-0.5,8.6-3.2c7.5-8.6,17.3-13.6,27.7-17.9c63.4-26.1,126.8-52.4,190.2-78.7
		c23.5-9.8,47.4-19,70.4-29.8c19.9-9.3,36.6-6.2,52.1,8.2c29,26.8,62.6,47,96.6,66.6c52.2,30.1,102.4,63.2,150.3,99.7
		c19.3,14.7,37.8,30.3,55.3,46.9c21.8,20.6,46.7,33,77.6,31.3c15-0.8,29.9,0.3,44.5-5.3c14.4-5.5,26.5-14.1,37.5-24.5
		c8.1-7.6,15.9-15.6,23.6-23.6c25.1-26,53.3-48.3,83.4-68.1c34.4-22.7,68.7-45.4,103.1-68.1c24-15.8,49-30.3,72-47.5
		c33-24.6,65.6-49.9,94.9-79c16.7-16.6,33.5-33.1,50-49.9c59.8-61.2,104.8-131.7,133.9-212.3c7.8-21.5,14.2-43.4,19.6-65.7
		c1.7-7,3.5-13.9,8.7-19.4c4.5-4.7,9.7-7,15.9-5.3c6.9,1.8,13.7,4.3,20.4,6.8c84.6,31.3,169.1,62.7,253.6,94
		c81.5,30.1,163.1,60.2,244.6,90.2c5.4,2,12.5,2.4,12.7,10c0.1,6.4-6.2,7.8-10.8,10c-108.4,52.1-216.9,104-325.3,156.1
		c-78.4,37.6-156.7,75.3-235,113c-74.8,36-149.6,72-224.5,107.9c-107.8,51.8-215.6,103.5-323.4,155.3
		c-97.8,47-195.7,93.7-293.3,141.2c-18.8,9.2-34.6,7.9-51.4-3.5c-30.3-20.6-61.1-40.4-91.7-60.6
		c-117.4-77.4-234.7-154.8-352.1-232.3c-12-7.9-24.2-15.6-33.3-27.2c-1.5-1.9-4.5-2.6-6.8-3.8C90.2,1334.2,90.2,1330.3,90.2,1326.4z
		"/>
	<path class="st0" d="M970,1923.1c-1.3-1.3-2.3-3.1-3.9-3.8c-20.8-8.4-39.1-21-57.7-33.2c-61.2-40.2-122.3-80.5-183.4-121
		c-6.5-4.3-13.5-8-18.3-14.6c-3.2-4.4-3.1-8.2,0.3-12.4c4.7-5.8,11.4-8.6,17.8-11.8c35.8-17.6,71.6-35.2,107.4-52.7
		c79.2-38.8,158.5-77.4,237.8-116.2c81-39.7,161.9-79.5,242.9-119.2c23.5-11.5,47.5-22,70.4-34.5c28.7-15.6,58.8-19.7,90.9-17.5
		c50.2,3.4,100.5,5.3,150.7,7.7c67.2,3.2,134.5,6.4,201.7,9.5c26.8,1.2,53.6,2,80.4,3.1c30.7,1.2,61.4,2.4,92.1,3.8
		c13.7,0.6,27.4,1.7,41.1,2.7c2.6,0.2,5.2,0.7,7.6,1.5c4.2,1.5,5.5,8.8,1.9,11.5c-3.6,2.7-7.6,5-11.7,6.9
		c-56.1,26.6-112.2,53.2-168.3,79.8c-90.3,42.8-180.7,85.7-271,128.5c-80.9,38.4-161.8,76.7-242.6,115.1
		c-83.2,39.5-166.4,79.2-249.7,118.5c-34.8,16.4-69.9,32.1-104.9,48.2C991,1923.1,980.5,1923.1,970,1923.1z"/>
	<path class="st0" d="M2232,1323.1c-52-2.9-93.8-5.5-135.5-7.4c-49-2.3-98-3.8-147-5.9c-34-1.5-67.9-3.6-101.8-5.2
		c-26.8-1.3-53.6-2.2-80.3-3.3c-30-1.2-60.1-2.4-90.1-3.8c-11.7-0.5-23.4-1.7-35.2-2.6c-1.3-0.1-2.7-0.3-3.8-0.8
		c-2.5-1.1-4.3-2.9-4.8-5.7c-0.5-2.8,0.3-5.5,2.4-7.1c3.7-2.7,7.7-4.9,11.8-6.9c86.8-42.6,173.7-85.1,260.6-127.6
		c75.7-37.1,151.4-74.1,227.2-111.2c1.2-0.6,2.3-1.2,3.5-1.8c17.2-9.5,34.6-9.6,52.8-2.6c30.5,11.7,61.2,22.8,91.9,34.1
		c67.4,24.9,134.8,49.7,202.3,74.6c13.5,5,27,9.8,40.4,15c7.3,2.8,14.5,6,20.3,11.6c7.1,6.8,7.4,13.3,1,20.6
		c-6.2,7.1-14.4,11.1-22.7,15.1c-37.2,17.7-74.3,35.4-111.5,53c-33.7,16-67.6,31.3-100.9,47.9
		C2283.7,1317.5,2254.4,1327.3,2232,1323.1z"/>
</g>
<g>
	<path class="st1" d="M836.6,30.4L836.6,30.4L836.6,30.4c-0.1-1.2-0.1-2.3-0.1-3.5c-13.1,0-26.2,0-39.3,0c0,1.1,0,2.3-0.1,3.4
		C810.3,30.4,823.4,30.4,836.6,30.4z"/>
	<path class="st1" d="M781.4,30.5L781.4,30.5c5.1,1.3,10.2,0.7,15.3-0.1c-0.3-1.1-0.2-2.2,0.5-3.5c-5.2,0-10.5,0-15.7,0
		C781.5,28.1,781.5,29.3,781.4,30.5L781.4,30.5z"/>
	<path class="st1" d="M837,30.4c5.1,0.8,10.2,1.3,15.3,0.1c-0.1-1.2-0.1-2.4-0.1-3.6c-5.2,0-10.5,0-15.7,0
		C837.2,28.2,837.3,29.4,837,30.4z"/>
	<path class="st1" d="M781,30.6c-0.5-1.1-0.3-2.3,0.5-3.7c-3.9,0-7.9,0-11.8,0c0,1.3-0.1,2.5-0.1,3.8l0,0c0,0,0,0,0,0
		C773.4,32,777.2,31.5,781,30.6z"/>
	<path class="st1" d="M852.7,30.6c3.8,0.9,7.5,1.4,11.3,0.1c0,0,0,0,0,0v0c0-1.3,0-2.5-0.1-3.8c-3.9,0-7.9,0-11.8,0
		C853,28.3,853.2,29.5,852.7,30.6z"/>
	<path class="st1" d="M1396.5,500.2c-18.9-94.5-59.9-179.4-121.5-253.8c-89.2-107.7-202.5-175.5-339.3-204.5
		c-23.7-5-47.9-6.6-71.7-11.2c-3.9,3.3-7.7,3.4-11.4,0.1c-0.3,0.6-0.7,1.1-1.4,1.7c-5.2,2.5-10.1,2.8-14.3-1.8
		c-0.3,0.7-0.9,1.4-1.7,2.1c-12.2,5-24.4,5-36.6,0c-0.8-0.6-1.4-1.3-1.7-2.1c-4.2,4.6-9.1,4.2-14.3,1.8c-0.7-0.5-1.1-1.1-1.4-1.7
		c-3.8,3.3-7.6,3.2-11.4-0.1c-23.8,4.4-47.9,6-71.7,11C551,72.7,431.7,147.6,341.4,267.2c-70.8,93.7-109,200.3-116.8,317.4
		c-5.1,76.5,4.4,151.4,28.8,224.2c36.8,110.1,100.2,201.9,190.5,275c12.7,10.3,27.7,18.1,38.7,29.8c21.1,22.3,46.7,38.1,72.5,53.1
		c73.6,42.7,145.5,87.8,210.6,143c22.3,18.8,48.8,24.2,77.4,16.7c16.9-4.5,31.1-13.4,42.8-26.3c14.1-15.6,30.1-28.9,47.1-41.3
		c31.2-22.6,65-41.4,94.9-66c3-2.4,6.9-3.8,10.2-5.8c20.1-12.2,41.3-22.9,59.8-37.2c19.1-14.7,39.4-27.6,58.9-41.6
		c58-41.7,108.3-90.7,148.1-149.9C1399.1,818.5,1429.4,665.2,1396.5,500.2z M1175.6,658.8c-3.4,50.4-16,98.2-40.9,141.9
		c-55.5,97.5-137.9,158.7-249.1,179.1c-21.2,3.9-42.8,5.4-56.3,5c-105-0.2-188.5-33.3-257.5-101.3C514.5,827.1,480,759,470.3,678.7
		c-6.7-55.3-2.9-109.6,14.3-162.7c17-52.6,45.9-97.9,84.8-137c43.8-44,95.3-75,155.4-91.1c42-11.3,84.8-14.2,128.2-11.1
		c52.5,3.8,101.8,17.9,146.8,44.7c87.8,52.4,145.7,127.8,168.6,228.1C1176.7,585.5,1178.1,622,1175.6,658.8z"/>
	<path class="st1" d="M796.7,30.4c0,0.1,0.1,0.2,0.1,0.3c0.1-0.1,0.2-0.2,0.3-0.4C797,30.4,796.8,30.4,796.7,30.4z"/>
	<path class="st1" d="M836.6,30.4c0.1,0.1,0.2,0.2,0.3,0.3c0-0.1,0.1-0.2,0.1-0.3C836.8,30.4,836.7,30.4,836.6,30.4z"/>
	<path class="st1" d="M781,30.6c0,0.1,0.1,0.1,0.1,0.2c0.1-0.1,0.2-0.2,0.3-0.3C781.3,30.5,781.1,30.6,781,30.6z"/>
	<path class="st1" d="M852.3,30.5c0.1,0.1,0.2,0.2,0.3,0.3c0-0.1,0.1-0.1,0.1-0.2C852.6,30.6,852.4,30.6,852.3,30.5z"/>
</g>
<g>
	<path class="st1" d="M9909.8,1558c-5.9,0.3-11.7,0.9-17.6,0.9c-76.6,0.1-153.2,0-229.8,0c-2.6,0-5.3-0.2-7.9,0
		c-7.2,0.7-12-2.3-16.2-8.2c-24.8-34.6-49.9-68.9-74.9-103.3c-83.4-114.8-166.9-229.6-250.4-344.4c-4.1-5.7-8.5-11.3-12.7-16.8
		c-5,2.1-3.1,5.8-3.4,8.7c-0.3,2.6-0.1,5.2-0.1,7.8c0,142,0.1,284-0.1,425.9c0,9.6,2.5,19.5-2,28.8c-8.9,2.9-18.1,1.3-27.1,1.3
		c-61.5,0.2-123.1,0.1-184.6,0.1c-5.2,0-10.5,0-15.7-0.1c-3.7-0.1-6.1-1.8-6.2-5.8c-0.1-4.6-0.1-9.2-0.1-13.7
		c0-377.5,0-755,0-1132.5c0-21.4-2.2-19.2,18.5-19.2c66.1-0.1,132.2,0,198.3,0c4.6,0,9.2,0.1,13.7,0.3c2.9,0.1,4.9,1.8,5,4.8
		c0.2,5.9,0.2,11.8,0.2,17.7c0,208.7,0,417.4,0,626.1c0,7,0.2,13.9,0.3,23.2c7.1-4.3,10.3-9.2,13.8-13.4
		c59.1-70,118.2-140,177.3-210c36.3-43,72.6-86,108.8-129c2.5-3,5.1-6,7.7-8.9c2.3-2.5,5-4.1,8.5-3.9c3.3,0.1,6.5,0,9.8,0
		c83.1,0,166.3,0,249.4,0c3.3,0,6.5,0,9.6,0c3.5,6.2-1.9,8.7-4.5,11.7c-39.3,46.5-78.7,92.8-118.1,139.2
		c-62.3,73.3-124.6,146.6-186.9,219.9c-1.3,1.5-2.6,2.9-3.8,4.5c-6,7.4-6.2,7.6-0.8,15c19.9,27.6,40,55,60,82.5
		c89.8,123.2,179.6,246.3,269.4,369.4c4.2,5.8,8.2,11.6,12.3,17.5C9909.8,1555.4,9909.8,1556.7,9909.8,1558z"/>
	<path class="st1" d="M5050,766.3c5.2-4.4,7.1-5.9,8.9-7.5c52.3-47.2,114-72.6,183.5-81.1c48.8-6,96.9-3.1,143.9,10.5
		c99,28.7,164.2,93.7,199.1,189.8c16,44,22.9,89.8,23.4,136.6c0.3,29.4,0.1,58.9,0.1,88.3c0,144.6,0,289.2,0,433.8
		c0,5.2-0.1,10.5-0.1,15.7c0,3.8-1.8,6.1-5.7,6.3c-3.9,0.2-7.8,0.2-11.8,0.2c-66.1,0-132.2,0-198.3,0c-2.6,0-5.2,0.1-7.9,0
		c-10.2-0.3-10.7-0.9-10.9-11.4c-0.1-4.6,0-9.2,0-13.7c0-157.7,0-315.3,0.1-473c0-22.4-1.5-44.4-8.8-65.8
		c-20.8-60.9-63.2-95.8-126.9-105c-29.8-4.3-58.9-1.5-86.9,9.1c-51.6,19.6-82.9,57.5-96.5,110.5c-4.5,17.3-5.1,34.9-5.1,52.6
		c0,51.7,0,103.4,0,155.1c0,107.9,0,215.9,0,323.8c0,18.5,1.6,18-18.2,18c-66.8-0.1-133.5,0-200.3,0c-3.9,0-7.9-0.1-11.8-0.2
		c-4-0.1-5.7-2.5-5.7-6.2c0-5.9-0.1-11.8-0.1-17.7c0-139.4,0-278.7,0-418.1c0-234.2,0-468.4,0-702.6c0-5.2-0.1-10.5,0-15.7
		c0.2-10.6,0.2-10.9,11.1-10.9c70.7-0.1,141.4,0,212.1,0c2.6,0,5.2,0.1,7.8,0.4c2.9,0.4,4.7,2.2,4.8,5.1c0.2,5.9,0.2,11.8,0.2,17.7
		c0,109.9,0,219.8,0,329.7C5050,747.7,5050,754.8,5050,766.3z"/>
	<path class="st1" d="M4133.3,1103.7c0-62.8,0-125.6,0-188.4c0-5.2-0.1-10.5-0.3-15.7c-0.1-3-1.9-4.9-4.7-5.1
		c-4.6-0.3-9.2-0.3-13.7-0.3c-32.7,0-65.4,0-98.2,0c-4.6,0-9.2,0-13.7-0.2c-2.9-0.2-4.6-2.1-4.8-5c-0.2-3.3-0.3-6.5-0.3-9.8
		c0-56.3,0-112.5,0-168.8c0-3.3,0-6.5,0.2-9.8c0.3-3.8,2.6-5.7,6.4-5.8c4.6,0,9.2-0.1,13.7-0.1c31.4,0,62.8,0,94.2,0
		c4.6,0,9.2-0.1,13.7,0c4.6,0.1,7.5-1.6,7.4-6.7c0-5.2,0-10.5,0-15.7c0-41.2-0.1-82.4,0-123.6c0.2-49.1,0.5-98.1,0.8-147.2
		c0-2.6,0.1-5.2,0.1-7.8c0-3.9,1.9-6,5.9-6.1c3.9-0.1,7.9-0.1,11.8-0.1c66.8,0,133.5,0,200.3,0c3.3,0,6.5,0.1,9.8,0
		c4.6-0.1,7.4,1.6,7.4,6.7c-0.1,5.2,0,10.5,0.1,15.7c0,87.7,0,175.3,0,263c0,5.2,0.1,10.5,0.2,15.7c0.1,3.9,2.5,5.9,6.2,6
		c5.2,0.2,10.5,0.1,15.7,0.1c66.1,0,132.2,0,198.3,0c5.2,0,10.5-0.1,15.7,0.1c7.9,0.3,8.9,1.1,8.9,9.5c0.1,31.4,0.1,62.8,0.1,94.2
		c0,28.8,0.1,57.6-0.1,86.3c0,8.3-1,9.2-8.9,9.4c-11.1,0.2-22.3,0.1-33.4,0.1c-60.9,0-121.7,0-182.6,0c-5.2,0-10.4,0.3-15.7,0.5
		c-2.4,0.1-3.6,2.1-3.9,3.8c-0.6,3.2-0.5,6.5-0.5,9.8c0,108.6-0.1,217.2,0.1,325.8c0,17.6,1.4,35.3,6.1,52.5
		c8.9,32.4,28.7,55.1,60,67.8c26.5,10.8,54.5,13.6,82.6,14.5c34.7,1.1,69.3-2.7,103.8-5.4c22.1-1.7,20.2-3.5,20.2,18.2
		c0,53,0,106,0,159c0,2.6,0.1,5.2,0,7.8c-0.3,10.3-0.7,11.3-10.3,13.3c-18.5,3.9-37.1,8.2-55.8,11c-33.7,5-67.6,8.3-101.7,7.7
		c-49.9-0.9-99.2-6.3-146.8-22.3c-24.9-8.3-48.6-19.3-70.5-33.8c-56.7-37.4-91.6-90.2-109.5-155c-10.8-38.8-14.2-78.4-14.4-118.4
		C4133.1,1201.8,4133.3,1152.8,4133.3,1103.7z"/>
	<path class="st1" d="M6749.2,1100.9c-2.9-62.1-15.5-121.9-41-178.6c-44.1-98.3-113.9-171.5-213.5-214.4
		c-68.8-29.6-140.8-38.2-215.2-30.1c-76.7,8.4-144.1,36.3-199.2,91.3c-2,2-3.7,5.7-8.4,2.5c0-6.1,0-12.6,0-19.1
		c0-113.8,0-227.7,0-341.5c0-5.2-0.1-10.5,0-15.7c0.1-4.6-1.7-7.5-6.6-7.6c-3.3-0.1-6.5-0.1-9.8-0.1c-68.1,0-136.2,0-204.2,0
		c-2.6,0-5.2,0.1-7.9,0c-4.6-0.1-7.4,1.7-7.3,6.7c0.1,5.9,0,11.8,0,17.7c0,181.2,0,362.5,0,543.7c0,193,0,386,0,579
		c0,5.2-0.1,10.5,0,15.7c0.2,7.2,1.1,8.2,7.5,8.4c3.9,0.2,7.9,0.1,11.8,0.1c58.9,0,117.8,0.1,176.7,0c23.7,0,20.3,2.4,20.4-21.3
		c0.2-26.1,0-52.1,0-83.1c5.9,6.5,8.5,9.2,11,12.1c42.3,50,95.8,82.4,158.8,99.4c47.8,12.9,96.4,16.7,145.9,12.4
		c80.4-7,152.7-34.3,216.2-84.1c67.3-52.9,112.6-121.3,139.7-202C6744.9,1230.2,6752.2,1166.3,6749.2,1100.9z M6483.9,1246.4
		c-33.7,65.6-87.2,104.1-160.1,116c-35.5,5.8-70.5,3.6-104.8-6.9c-69.7-21.3-115.3-67.9-137.1-136.7
		c-19.9-62.8-19.9-126.6,2.3-188.8c29.5-82.9,89.2-129.8,176.8-140.1c53.9-6.4,104.2,4.7,149.6,34.9c50.5,33.5,79.8,81.6,93.4,139.9
		c4.9,21.1,6.1,42.7,6.6,59.5C6509.8,1169.9,6502.7,1209.6,6483.9,1246.4z"/>
	<path class="st1" d="M3431.5,387.6c-25,0-49.8,0.1-74.6-0.1c-4.7,0-7.1,2.5-8.9,6.3c-1.9,4.1-3.7,8.4-5.5,12.6
		c-25.7,58.6-51.4,117.2-77.2,175.8c-139.7,318.1-279.4,636.2-419,954.3c-2.4,5.4-4.8,10.7-6.9,16.2c-1.5,3.8,0.1,6.1,4.5,6.2
		c17,0.1,34,0.1,51,0.1c61.5,0,123-0.1,184.5,0.1c7.6,0,11.8-2.7,14.7-9.6c17.1-40.3,34.5-80.4,51.8-120.6c2.1-4.8,4.2-9.6,6.2-14.4
		c1.8-4.1,4.9-5.7,9.3-5.5c5.2,0.2,10.5,0,15.7,0c115.8,0,231.6,0,347.5,0c30.1,0,60.2,0.3,90.3-0.2c8.7-0.2,12.6,3,15.9,10.8
		c17.5,41.5,35.5,82.8,53.4,124.2c1.6,3.6,3.2,7.2,4.7,10.8c1.2,2.7,3.4,3.9,6.1,4.1c3.3,0.3,6.5,0.3,9.8,0.3
		c75.2,0,150.5,0,225.7,0c3.7,0,7.8,1,12.4-2.9C3772.7,1167.2,3602.4,777.9,3431.5,387.6z M3239.8,1214.9c-2.1-3.9-0.4-6.9,0.7-9.9
		c20.7-58.1,141.5-360.3,149.5-374c0.6-0.2,1.3-0.7,1.6-0.5c0.5,0.3,0.8,1,1.1,1.6c49.4,125,98.7,250,148,375
		c0.7,1.7,0.9,3.7,1.8,7.8C3440.5,1214.9,3340,1214.9,3239.8,1214.9z"/>
	<path class="st1" d="M7811.2,1061.2c-10.5-81-43.5-153.1-96-215.6c-81.9-97.4-186.1-154.3-313.1-168c-60.4-6.5-120.2-3-178.9,13
		c-187.7,51.2-326.8,217.6-335.6,406.3c-1.8,39.3-0.7,78.5,7,117.2c17.3,87,57.2,162.4,119.5,225.3
		c91.8,92.9,203.5,139.4,349.3,139.1c20,0.8,54.5-2.5,88.4-10.1c98-21.9,181.3-69.9,248.4-144.5
		C7793.3,1320.4,7829,1198.4,7811.2,1061.2z M7573.5,1121.9c0.3,58-13.1,107.2-44.8,150.3c-41.8,56.8-98.9,85.7-169.1,89.4
		c-30.4,1.6-60.1-2.8-88.7-13.3c-56.3-20.7-97.9-58.3-121.4-113.1c-34.6-80.5-32.4-161,10.7-237.8c38.1-68,99.2-101.9,176.5-106.9
		c31.7-2,62.8,2,92.4,13.8c71.4,28.4,115.1,81.6,135.7,154.6C7571,1080.9,7573.9,1103.6,7573.5,1121.9z"/>
	<path class="st1" d="M8866.8,1026c-23.1-99.1-75.5-180.1-153.6-244.4c-72.5-59.7-155.7-94.7-249.5-104.1
		c-50.5-5.1-100.7-3.9-150.3,6.5c-96.3,20.2-178.3,66.4-245.3,138.4c-57.5,61.6-95,133.7-111.4,216.7c-7.3,36.9-7.5,74-6.9,111.3
		c0.4,26.9,4.3,53.4,10.6,79.5c25.7,106.5,83.5,192.2,170.9,257.6c82.8,62.1,176.4,92.3,289.4,90.6c37,0,61.8-2.7,101.5-11.8
		c183.9-42.2,332.7-200.8,352.4-386.4C8879.8,1128.3,8878.6,1076.8,8866.8,1026z M8605.9,1247.9c-33.7,61.8-86.2,98.5-155.8,110.6
		c-43.7,7.6-86.3,3.2-127-14.1c-66.6-28.3-107.1-79.5-125.9-148.5c-6-22.2-8.9-44.9-8.3-65.8c-0.6-41.3,6.4-79.1,23.4-114.4
		c38.1-79.1,101.7-120.5,189.1-125.2c59.6-3.2,112.3,15,156.9,54.8c34.7,30.9,57.2,69.5,68.6,114.3
		C8643.5,1124.8,8638.4,1188.3,8605.9,1247.9z"/>
</g>
</svg>
